<svg xmlns="http://www.w3.org/2000/svg" width="100" height="100">
	<path fill="white" d="
		M 20,20
		H 80
		V 80
		H 20
		V 20
		L 22,22
		V 78
		H 78
		V 22
		H 22

		h 1
		L 29,28
		H 71
		L 77,22
		h 1

		v 1
		L 72,29
		V 71
		L 78,77
		v 1

		h -1
		L 71,72
		H 29
		L 23,78
		h -1

		v -1
		L 28,71
		V 29
		L 22,23
		v -1

		L 30,30
		V 70
		H 70
		V 30
		H 30
		Z"/>


	<path fill="white" d="
		M 35,35
		H 43
		v 3
		H 35 h 3
		V 50 v -1.5
		H 43
		v 3
		H 35 h 3
		V 65 v -3
		H 43
		v 3
		H 35
		Z"/>
	<path stroke="white" d="
		M 54,43
		A 4,8 0,1,0 50,51
		A 1.5,5.5 0,1,1 48.5,56
		L 46,56
		A 4,8 0,1,0 50,49
		A 1.5,5.5 0,1,1 51.5,43
		Z"/>
	<path fill="white" d="
		M 65,43
		C 65,35 65,35 61,35
		A 4,15 0,1,0 61,65
		C 65,65 65,65 65,56
		h -2.5
		C 63,63 63,63 61,62.5
		A 1,10 0,1,1 61,37.5
		C 63,38 63,38 62.5,43
		Z"/>
</svg>